<?xml version="1.0" encoding="utf-8"?>
<!-- Generator: Adobe Illustrator 16.0.0, SVG Export Plug-In . SVG Version: 6.00 Build 0)  -->
<!DOCTYPE svg PUBLIC "-//W3C//DTD SVG 1.1//EN" "http://www.w3.org/Graphics/SVG/1.1/DTD/svg11.dtd">
<svg version="1.1" id="Layer_1" xmlns="http://www.w3.org/2000/svg" xmlns:xlink="http://www.w3.org/1999/xlink" x="0px" y="0px"
	 width="500px" height="500px" viewBox="0 0 500 500" enable-background="new 0 0 500 500" xml:space="preserve">
<rect fill="#E6E7E8" width="500" height="500"/>
<g>
	<g>
		<path fill="#808285" d="M421.649,391.412c-7.779-1.326-18.3-1.068-23.043-0.855c-5.722-6.273-14.497-13.604-20.823-17.285
			c-11.217-6.518-33.016-15.24-60.577-11.533l-0.244-8l-13.569,3.344l3.161,6.568c-6.835,1.717-14.285,4.703-21.525,8.344
			c-28.289,14.217-40.19,39.092-45.217,53.064c-5.379,1.918-17.842,6.73-25.201,12.619c-9.59,7.664-8.035,14.516,21.258,15.082
			c0,0-11.58-3.387,0.814-12.027c1.351,5.496,9.723,10.813,49.262,6.389c51.758-5.785,87.751-18.525,110.637-30.578
			c6.726-3.543,9.249-7.826,9.076-12.342c18.742-1.336,5.779,8.746,5.779,8.746C442.086,399.82,432.005,393.186,421.649,391.412z
			 M390.983,415.314c-21.31,11.162-54.818,22.979-102.971,28.416c-48.157,5.438-41.899-6.938-41.059-12.609
			c0,0,2.186-36.781,40.809-56.082c6.821-3.41,13.489-5.807,19.919-7.404l0.794,2.32c0,0-15.08,4.111-30.729,16.811
			c-15.65,12.703-35.977,51.156-15.331,52.424c20.646,1.266,48.866-7.201,48.866-7.201s-45.891,7.213-47.875,1.486
			c-1.987-5.727,3.299-54.047,54.719-64.332l-0.482-3.391c25.464-3.326,46.183,5.232,56.554,11.193
			C388.396,385.117,412.295,404.158,390.983,415.314z"/>
		<path fill="#808285" d="M221.12,458.748c28.508,7.805,80.598,3.018,135.377-13.424c54.773-16.445,73.541-35.668,73.541-35.668
			C325.257,468.016,221.12,458.748,221.12,458.748z"/>
		<path fill="#808285" d="M256.765,460.309c46.089,10.289,76.334,2.012,103.238-6.326c26.905-8.33,46.818-29.924,46.818-29.924
			C333.168,459.291,256.765,460.309,256.765,460.309z"/>
	</g>
	<g>
		<path fill="#808285" d="M92.528,267.515c0,0-10.11-12.097-13.344-14.875c0,0,8.621-10.172,17.627-2.397
			c9.003,7.767,15.053,18.011,15.053,18.011s-2.19-28.303-3.944-30.946c0,0,9.998-3.335,14.495,4.78
			c4.495,8.114,4.679,28.278,4.679,28.278s2.841-6.715,10.51-9.012c0,0,7.325,9.86,17.536,12.52c0,0-2.514,16.936-16.741,11.93
			c0,0-0.193,21.623,8.596,20.67c8.792-0.953-1.115-12.537,5.938-21.857c7.053-9.316,14.908-5.379,14.908-5.379
			s-2.68,9.644,2.258,18.656c5.871,10.721,7.744,32.898-17.865,44.4c0,0,20.309-11.305,15.424-33.227
			c-3.055-13.697-6.797-18.512-5.707-22.398c0,0-8.455-0.01-8.264,8.963c0.19,8.969,2.725,22.381-10.046,17.752
			c-12.768-4.625-9.554-32.197-6.465-36.146c0,0,7.17,8.849,12.806-1.343c0,0-11.287-4.49-14.635-8.776
			c0,0-9.771,6.341-8.273,20.157c0,0-3.51-8.025-3.316-15.717c0.189-7.697-0.738-30.663-9.865-28.744c0,0,1.225,8.566,0.738,13.994
			c-0.485,5.433,2.503,27.589,5.428,33.816c0,0-23.502-45.882-34.298-36.402c0,0,16.531,18.149,25.285,39.824
			c0,0-22.432-35.589-34.487-25.972c0,0,10.213,5.394,18.22,21.53c8.008,16.143,9.743,37.363,18.908,48.879
			c2.692,3.381,7.074,6.148,11.12,8.627l7.49,25.35l-6.075,1.102l-5.303-20.84c-12.231-7.422-18.965-14.807-23.052-38.307
			c-6-34.5-27.204-44.379-29.786-46.104C68.08,268.313,71.628,253.705,92.528,267.515z"/>
		<polygon fill="#808285" points="161.247,340.152 168.191,358.139 171.122,356.082 		"/>
		<path fill="#808285" d="M126.369,363.246c0,0-6.861,3.148-8.244,7.084l10.966,28.246c0,0,41.067-4.018,59.394-29.063l-11.68-21.32
			c0,0-4.51-2.805-10.801,1.385l3.262,6.08l-0.023,1.271c0,0,4.16-2.277,5.48-4.805l8.579,16.486c0,0-14.292,18.916-52.196,24.264
			l-7.325-18.68c0,0,2.477,0.693,7.866-1.809L126.369,363.246z"/>
		<path fill="#808285" d="M171.928,352.125c0,0-15.614,14.771-47.235,19.744l-4.623-0.623l1.832,3.098
			c0,0,31.11,0.268,54.051-22.441C175.954,351.902,175.351,347.186,171.928,352.125z"/>
		<path fill="#808285" d="M130.985,346.807c0,0,15.128-2.744,9.099-19.182c0,0,10.581,16.723-7.635,23.457L130.985,346.807z"/>
	</g>
	<g>
		<path fill="#808285" d="M167.671,383.795c-2.106,1.26-4.399,2.506-6.86,3.701c19.236,21.127,44.583,36.504,73.057,43.404
			l7.809-4.896c0,0,0.09-0.381,0.294-1.072C213.045,419.365,187.176,404.643,167.671,383.795z"/>
		<path fill="#808285" d="M165.368,188.08c-19.869,19.976-33.92,45.652-39.527,74.171c0.228,3.53,0.304,7.578,0.187,12.233
			c0,0,2.446-4.869,6.643-7.635c4.565-26.483,16.788-50.519,34.38-69.614c-0.649-2.189-1.154-4.549-1.48-7.105
			C165.481,189.435,165.431,188.761,165.368,188.08z"/>
		<path fill="#808285" d="M412.522,283.564c-2.093-45.788-25.355-85.691-59.879-110.687c0.466,3.123,0.48,6.324,0.053,9.495
			c30.247,23.825,50.387,60.146,52.279,101.538c1.576,34.453-9.764,66.559-29.726,91.631c2.126,1.227,4.276,2.563,6.448,4.021
			C402.426,353.211,414.171,319.604,412.522,283.564z"/>
	</g>
	<g>
		<path fill="#808285" d="M267.814,202.418c-39.432-6.228-58.865,12.325-58.865,12.325l2.822,61.702
			c6.43-4.305,34.838-23.88,69.375-15.018c34.529,8.857,42.979,17.229,42.979,17.229l-2.988-68.838
			C310.938,210.486,307.243,208.647,267.814,202.418z M310.058,265.93c-8.641-0.209-17.359-2.018-28.91-4.502
			c-11.558-2.481-30.879-6.818-56.04,2.615c0,0-7.109,3.686-7.684-4.516l-1.705-37.265c0,0-0.656-5.589,3.65-7.994
			c0,0,13.28-9.496,35.565-8.049c23.158,1.5,31.445,5.035,55.362,7.91c0,0,5.448,0.551,5.678,5.557l1.742,38.068
			C317.717,257.755,318.697,266.135,310.058,265.93z"/>
		<path fill="#808285" d="M318.242,139.67c-6.06,0.276-11.708,2-16.644,4.81c-5.494-19.207-23.594-32.856-44.414-31.901
			c-18.717,0.854-34.162,13.259-39.801,30.01c-4.646-1.401-9.6-2.061-14.723-1.823c-24.337,1.111-43.166,21.743-42.053,46.082
			c1.113,24.338,21.746,43.158,46.082,42.052c1.926-0.086,3.811-0.332,5.658-0.654l-0.15-8.407
			c-1.404,0.228-2.839,0.381-4.296,0.447c-20.614,0.941-38.093-15.007-39.035-35.626c-0.94-20.612,15.007-38.088,35.622-39.031
			c7.898-0.36,15.328,1.764,21.554,5.673c1.926-17.157,16.077-30.851,33.874-31.663c19.712-0.902,36.424,14.347,37.325,34.06
			c0.114,2.539-0.042,5.032-0.438,7.446c5.219-6.39,13.023-10.621,21.918-11.025c16.588-0.756,30.654,12.075,31.411,28.667
			c0.757,16.583-12.501,30.331-29.084,31.089c-0.245,0.011-0.062,0.328-0.306,0.333l-1.487,3.641
			c0.788,0.022,1.578,0.022,2.376-0.014c20.484-0.937,36.325-18.3,35.39-38.778C356.088,154.575,338.725,138.733,318.242,139.67z"/>
		<path fill="#808285" d="M255.927,203.767c0,0,11.587-10.016,6.857-27.867c-4.733-17.852-9.48-22.902-4.743-31.249
			c4.737-8.347,13.249-3.317,10.979,6.271c-2.274,9.591,0.403,18.654,0.735,22.702c0.334,4.048,1.965,19.934-11.54,30.79
			L255.927,203.767z"/>
		<path fill="#808285" d="M287.917,208.627c0,0,14.523-1.717,23.563-14.782c9.037-13.054,9.274-21.045,16.488-18.068
			c7.217,2.986-6.729,27.409-37.277,34.225L287.917,208.627z"/>
		<path fill="#808285" d="M224.268,209.43c0,0-20.813-7.332-29.462-21.989c-8.647-14.662,1.13-21.431,4.98-12.879
			c3.856,8.558,6.291,25.612,26.673,33.411L224.268,209.43z"/>
		<path fill="#808285" d="M284.458,281.664c14.169-0.48,18.681,4.442,18.681,4.442c-0.671-6.442-2.668-7.554-2.668-7.554
			c-1.334-0.674-10.458-3.115-16.231-2.006c-5.782,1.109-5.116,9.336-5.116,9.336C280.904,282.107,284.458,281.664,284.458,281.664z
			"/>
		<path fill="#808285" d="M252.444,275.212c-5.779-1.104-14.895,1.335-16.231,2.005c0,0-1.998,1.111-2.67,7.559
			c0,0,4.58-4.865,18.679-4.443c0,0,3.556,0.438,5.335,4.221C257.558,284.553,258.229,276.332,252.444,275.212z"/>
		<path fill="#808285" d="M256.89,298.557l-3.111,2.668c0,0,9.784,6.451,13.342,9.342c0,0,6.669-4.893,10.222-6.895
			c0,0,3.335,0.668,6.897-0.893c0,0-4.449-0.441-7.784-2.885C276.455,299.895,268.007,312.793,256.89,298.557z"/>
		<path fill="#808285" d="M249.331,343.576c0,0-0.875,4.199,0.311,8.561c-3.767-1.652-29.559-17.57-29.559-61.189
			c0,0-12.994,49.068,30.461,63.646c2.172,4.488,5.629,9.172,19.056,7.289C269.6,361.883,250.971,362.043,249.331,343.576z"/>
		<path fill="#808285" d="M217.314,282.224c-4.997-4.502,3.684-12.188,22.388-16.036c9.586,5.461,21.857,6.584,21.857,6.584
			c-4.319-1.584-8.622-5.583-11.132-8.211c3.516-0.364,7.267-0.604,11.247-0.686c8.399-0.168,15.864,0.344,22.408,1.257
			c-2.475,2.317-7.078,6.147-12.29,8.085l1.773,15.559l1.778-13.12c0,0,10.34-2.682,18.084-8.83
			c13.785,3.085,23.68,7.721,26.57,9.996c4.664,3.665-3.969,5.063-3.969,5.063c2.971,16.811-2.015,38.516-6.475,44.879
			c3.396-2.123,9.445-17.988,8.492-16.285c3.714-2.232,8.185-10.271,7.659-16.594c-0.67-8.002-5.344-3.332-5.344-3.332v-6.67
			c7.67-4.668,2.012-9,2.012-9c-12.351-11.008-39.022-18.347-58.367-17.678c-19.344,0.666-39.687,5.336-48.691,13.676
			C206.313,279.215,217.314,282.224,217.314,282.224z"/>
		<path fill="#808285" d="M337.556,314.848c0,0,6.884,6.885,5.089,14.064c-1.797,7.184-15.562,13.467-30.524,2.693
			c-14.963-10.771-34.414-35.266-44.589-21.801c-0.134,0.178-0.244,0.348-0.368,0.523c-0.124-0.176-0.234-0.346-0.368-0.523
			c-10.175-13.465-29.626,11.029-44.589,21.801c-14.963,10.773-28.728,4.49-30.522-2.693c-1.796-7.18,5.086-14.064,5.086-14.064
			s-14.323,10.936-3.291,22.744c11.372,12.168,43.392-0.598,55.063-3.59c6.462-1.658,14.476-4.602,18.623-9.184
			c4.146,4.582,12.161,7.525,18.622,9.184c11.671,2.992,43.69,15.758,55.063,3.59C351.881,325.783,337.556,314.848,337.556,314.848z
			"/>
	</g>
</g>
</svg>
